<svg xmlns="http://www.w3.org/2000/svg" xmlns:xlink="http://www.w3.org/1999/xlink" width="1080" zoomAndPan="magnify" viewBox="0 0 810 809.999993" height="1080" preserveAspectRatio="xMidYMid meet" version="1.2"><defs><clipPath id="85b848b728"><path d="M 216.015625 218.464844 L 596.265625 218.464844 L 596.265625 566.433594 L 216.015625 566.433594 Z M 216.015625 218.464844 "/></clipPath></defs><g id="7e43527bd4"><g clip-rule="nonzero" clip-path="url(#85b848b728)"><path style="fill:none;stroke-width:14;stroke-linecap:butt;stroke-linejoin:miter;stroke:#000000;stroke-opacity:1;stroke-miterlimit:4;" d="M -0.000603411 0.00240539 L 507.140026 0.00240539 L 507.140026 464.089429 L -0.000603411 464.089429 Z M -0.000603411 0.00240539 " transform="matrix(0.749792,0,0,0.749792,216.016077,218.46304)"/></g><g style="fill:#000000;fill-opacity:1;"><g transform="translate(253.685755, 529.763874)"><path style="stroke:none" d="M 0 0 L 0 -136.125 L 68.0625 -204.171875 L 68.0625 0 Z M 119.109375 0 L 119.109375 -204.171875 L 0 -204.171875 L 0 -272.234375 L 238.203125 -272.234375 L 306.265625 -204.171875 L 306.265625 0 L 238.203125 0 L 238.203125 -204.171875 L 187.15625 -204.171875 L 187.15625 0 Z M 119.109375 0 "/></g></g></g></svg>