<svg xmlns="http://www.w3.org/2000/svg" xmlns:xlink="http://www.w3.org/1999/xlink" width="1080" zoomAndPan="magnify" viewBox="0 0 810 809.999993" height="1080" preserveAspectRatio="xMidYMid meet" version="1.2"><defs><clipPath id="6a7585117d"><path d="M 213.429688 164.160156 L 593.679688 164.160156 L 593.679688 512.128906 L 213.429688 512.128906 Z M 213.429688 164.160156 "/></clipPath></defs><g id="9429ea71ab"><g style="fill:#000000;fill-opacity:1;"><g transform="translate(211.862727, 639.423345)"><path style="stroke:none" d="M 3.046875 -22.734375 L 13 -22.734375 C 15.414062 -22.734375 17.566406 -22.257812 19.453125 -21.3125 C 21.335938 -20.375 22.800781 -19.046875 23.84375 -17.328125 C 24.882812 -15.609375 25.40625 -13.625 25.40625 -11.375 C 25.40625 -9.113281 24.882812 -7.125 23.84375 -5.40625 C 22.800781 -3.6875 21.335938 -2.351562 19.453125 -1.40625 C 17.566406 -0.46875 15.414062 0 13 0 L 3.046875 0 Z M 12.796875 -3.578125 C 14.460938 -3.578125 15.925781 -3.894531 17.1875 -4.53125 C 18.457031 -5.164062 19.429688 -6.070312 20.109375 -7.25 C 20.796875 -8.4375 21.140625 -9.8125 21.140625 -11.375 C 21.140625 -12.925781 20.796875 -14.289062 20.109375 -15.46875 C 19.429688 -16.65625 18.457031 -17.566406 17.1875 -18.203125 C 15.925781 -18.847656 14.460938 -19.171875 12.796875 -19.171875 L 7.28125 -19.171875 L 7.28125 -3.578125 Z M 12.796875 -3.578125 "/></g></g><g style="fill:#000000;fill-opacity:1;"><g transform="translate(243.462781, 639.423345)"><path style="stroke:none" d="M 3.046875 -22.734375 L 7.28125 -22.734375 L 7.28125 0 L 3.046875 0 Z M 3.046875 -22.734375 "/></g></g><g style="fill:#000000;fill-opacity:1;"><g transform="translate(258.598333, 639.423345)"><path style="stroke:none" d="M 23.84375 -22.734375 L 13.9375 0 L 9.78125 0 L -0.15625 -22.734375 L 4.421875 -22.734375 L 11.984375 -5.203125 L 19.625 -22.734375 Z M 23.84375 -22.734375 "/></g></g><g style="fill:#000000;fill-opacity:1;"><g transform="translate(287.048378, 639.423345)"><path style="stroke:none" d="M 3.046875 -22.734375 L 7.28125 -22.734375 L 7.28125 0 L 3.046875 0 Z M 3.046875 -22.734375 "/></g></g><g style="fill:#000000;fill-opacity:1;"><g transform="translate(302.183931, 639.423345)"><path style="stroke:none" d="M 10.109375 0.328125 C 8.347656 0.328125 6.648438 0.078125 5.015625 -0.421875 C 3.378906 -0.921875 2.085938 -1.582031 1.140625 -2.40625 L 2.59375 -5.6875 C 3.53125 -4.945312 4.675781 -4.34375 6.03125 -3.875 C 7.382812 -3.414062 8.742188 -3.1875 10.109375 -3.1875 C 11.796875 -3.1875 13.054688 -3.457031 13.890625 -4 C 14.722656 -4.539062 15.140625 -5.253906 15.140625 -6.140625 C 15.140625 -6.785156 14.90625 -7.316406 14.4375 -7.734375 C 13.96875 -8.160156 13.375 -8.492188 12.65625 -8.734375 C 11.945312 -8.972656 10.976562 -9.242188 9.75 -9.546875 C 8.007812 -9.960938 6.601562 -10.375 5.53125 -10.78125 C 4.46875 -11.195312 3.550781 -11.84375 2.78125 -12.71875 C 2.007812 -13.59375 1.625 -14.78125 1.625 -16.28125 C 1.625 -17.53125 1.960938 -18.671875 2.640625 -19.703125 C 3.328125 -20.734375 4.359375 -21.550781 5.734375 -22.15625 C 7.109375 -22.757812 8.789062 -23.0625 10.78125 -23.0625 C 12.164062 -23.0625 13.53125 -22.890625 14.875 -22.546875 C 16.21875 -22.203125 17.378906 -21.703125 18.359375 -21.046875 L 17.015625 -17.765625 C 16.023438 -18.347656 14.988281 -18.789062 13.90625 -19.09375 C 12.820312 -19.40625 11.769531 -19.5625 10.75 -19.5625 C 9.082031 -19.5625 7.84375 -19.273438 7.03125 -18.703125 C 6.21875 -18.140625 5.8125 -17.394531 5.8125 -16.46875 C 5.8125 -15.820312 6.046875 -15.289062 6.515625 -14.875 C 6.984375 -14.46875 7.570312 -14.144531 8.28125 -13.90625 C 9 -13.664062 9.972656 -13.394531 11.203125 -13.09375 C 12.890625 -12.695312 14.273438 -12.285156 15.359375 -11.859375 C 16.441406 -11.441406 17.367188 -10.800781 18.140625 -9.9375 C 18.910156 -9.070312 19.296875 -7.90625 19.296875 -6.4375 C 19.296875 -5.175781 18.953125 -4.035156 18.265625 -3.015625 C 17.585938 -2.003906 16.554688 -1.191406 15.171875 -0.578125 C 13.785156 0.0234375 12.097656 0.328125 10.109375 0.328125 Z M 10.109375 0.328125 "/></g></g><g style="fill:#000000;fill-opacity:1;"><g transform="translate(327.386539, 639.423345)"><path style="stroke:none" d="M 3.046875 -22.734375 L 7.28125 -22.734375 L 7.28125 0 L 3.046875 0 Z M 3.046875 -22.734375 "/></g></g><g style="fill:#000000;fill-opacity:1;"><g transform="translate(342.522091, 639.423345)"><path style="stroke:none" d="M 13.671875 0.328125 C 11.359375 0.328125 9.269531 -0.175781 7.40625 -1.1875 C 5.539062 -2.195312 4.078125 -3.59375 3.015625 -5.375 C 1.953125 -7.164062 1.421875 -9.164062 1.421875 -11.375 C 1.421875 -13.582031 1.953125 -15.578125 3.015625 -17.359375 C 4.078125 -19.148438 5.539062 -20.546875 7.40625 -21.546875 C 9.269531 -22.554688 11.359375 -23.0625 13.671875 -23.0625 C 15.992188 -23.0625 18.082031 -22.554688 19.9375 -21.546875 C 21.800781 -20.546875 23.265625 -19.15625 24.328125 -17.375 C 25.390625 -15.601562 25.921875 -13.601562 25.921875 -11.375 C 25.921875 -9.144531 25.390625 -7.140625 24.328125 -5.359375 C 23.265625 -3.585938 21.800781 -2.195312 19.9375 -1.1875 C 18.082031 -0.175781 15.992188 0.328125 13.671875 0.328125 Z M 13.671875 -3.375 C 15.191406 -3.375 16.554688 -3.710938 17.765625 -4.390625 C 18.984375 -5.078125 19.9375 -6.03125 20.625 -7.25 C 21.320312 -8.476562 21.671875 -9.851562 21.671875 -11.375 C 21.671875 -12.882812 21.320312 -14.25 20.625 -15.46875 C 19.9375 -16.695312 18.984375 -17.648438 17.765625 -18.328125 C 16.554688 -19.015625 15.191406 -19.359375 13.671875 -19.359375 C 12.160156 -19.359375 10.796875 -19.015625 9.578125 -18.328125 C 8.367188 -17.648438 7.414062 -16.695312 6.71875 -15.46875 C 6.03125 -14.25 5.6875 -12.882812 5.6875 -11.375 C 5.6875 -9.851562 6.03125 -8.476562 6.71875 -7.25 C 7.414062 -6.03125 8.367188 -5.078125 9.578125 -4.390625 C 10.796875 -3.710938 12.160156 -3.375 13.671875 -3.375 Z M 13.671875 -3.375 "/></g></g><g style="fill:#000000;fill-opacity:1;"><g transform="translate(374.641745, 639.423345)"><path style="stroke:none" d="M 23.265625 -22.734375 L 23.265625 0 L 19.78125 0 L 7.25 -15.390625 L 7.25 0 L 3.046875 0 L 3.046875 -22.734375 L 6.53125 -22.734375 L 19.0625 -7.34375 L 19.0625 -22.734375 Z M 23.265625 -22.734375 "/></g></g><g style="fill:#000000;fill-opacity:1;"><g transform="translate(405.72222, 639.423345)"><path style="stroke:none" d=""/></g></g><g style="fill:#000000;fill-opacity:1;"><g transform="translate(419.461375, 639.423345)"><path style="stroke:none" d="M 7.671875 -19.171875 L 0.125 -19.171875 L 0.125 -22.734375 L 19.421875 -22.734375 L 19.421875 -19.171875 L 11.890625 -19.171875 L 11.890625 0 L 7.671875 0 Z M 7.671875 -19.171875 "/></g></g><g style="fill:#000000;fill-opacity:1;"><g transform="translate(443.787167, 639.423345)"><path style="stroke:none" d="M 13.671875 0.328125 C 11.359375 0.328125 9.269531 -0.175781 7.40625 -1.1875 C 5.539062 -2.195312 4.078125 -3.59375 3.015625 -5.375 C 1.953125 -7.164062 1.421875 -9.164062 1.421875 -11.375 C 1.421875 -13.582031 1.953125 -15.578125 3.015625 -17.359375 C 4.078125 -19.148438 5.539062 -20.546875 7.40625 -21.546875 C 9.269531 -22.554688 11.359375 -23.0625 13.671875 -23.0625 C 15.992188 -23.0625 18.082031 -22.554688 19.9375 -21.546875 C 21.800781 -20.546875 23.265625 -19.15625 24.328125 -17.375 C 25.390625 -15.601562 25.921875 -13.601562 25.921875 -11.375 C 25.921875 -9.144531 25.390625 -7.140625 24.328125 -5.359375 C 23.265625 -3.585938 21.800781 -2.195312 19.9375 -1.1875 C 18.082031 -0.175781 15.992188 0.328125 13.671875 0.328125 Z M 13.671875 -3.375 C 15.191406 -3.375 16.554688 -3.710938 17.765625 -4.390625 C 18.984375 -5.078125 19.9375 -6.03125 20.625 -7.25 C 21.320312 -8.476562 21.671875 -9.851562 21.671875 -11.375 C 21.671875 -12.882812 21.320312 -14.25 20.625 -15.46875 C 19.9375 -16.695312 18.984375 -17.648438 17.765625 -18.328125 C 16.554688 -19.015625 15.191406 -19.359375 13.671875 -19.359375 C 12.160156 -19.359375 10.796875 -19.015625 9.578125 -18.328125 C 8.367188 -17.648438 7.414062 -16.695312 6.71875 -15.46875 C 6.03125 -14.25 5.6875 -12.882812 5.6875 -11.375 C 5.6875 -9.851562 6.03125 -8.476562 6.71875 -7.25 C 7.414062 -6.03125 8.367188 -5.078125 9.578125 -4.390625 C 10.796875 -3.710938 12.160156 -3.375 13.671875 -3.375 Z M 13.671875 -3.375 "/></g></g><g style="fill:#000000;fill-opacity:1;"><g transform="translate(475.906822, 639.423345)"><path style="stroke:none" d="M 3.046875 -22.734375 L 7.28125 -22.734375 L 7.28125 0 L 3.046875 0 Z M 3.046875 -22.734375 "/></g></g><g style="fill:#000000;fill-opacity:1;"><g transform="translate(491.042374, 639.423345)"><path style="stroke:none" d="M 7.671875 -19.171875 L 0.125 -19.171875 L 0.125 -22.734375 L 19.421875 -22.734375 L 19.421875 -19.171875 L 11.890625 -19.171875 L 11.890625 0 L 7.671875 0 Z M 7.671875 -19.171875 "/></g></g><g style="fill:#000000;fill-opacity:1;"><g transform="translate(515.368166, 639.423345)"><path style="stroke:none" d="M 12.828125 0.328125 C 9.691406 0.328125 7.242188 -0.550781 5.484375 -2.3125 C 3.734375 -4.082031 2.859375 -6.613281 2.859375 -9.90625 L 2.859375 -22.734375 L 7.078125 -22.734375 L 7.078125 -10.0625 C 7.078125 -5.601562 9.003906 -3.375 12.859375 -3.375 C 16.691406 -3.375 18.609375 -5.601562 18.609375 -10.0625 L 18.609375 -22.734375 L 22.765625 -22.734375 L 22.765625 -9.90625 C 22.765625 -6.613281 21.894531 -4.082031 20.15625 -2.3125 C 18.414062 -0.550781 15.972656 0.328125 12.828125 0.328125 Z M 12.828125 0.328125 "/></g></g><g style="fill:#000000;fill-opacity:1;"><g transform="translate(545.766695, 639.423345)"><path style="stroke:none" d="M 17.9375 0 L 13.28125 -6.65625 C 13.09375 -6.632812 12.800781 -6.625 12.40625 -6.625 L 7.28125 -6.625 L 7.28125 0 L 3.046875 0 L 3.046875 -22.734375 L 12.40625 -22.734375 C 14.375 -22.734375 16.085938 -22.410156 17.546875 -21.765625 C 19.015625 -21.117188 20.140625 -20.1875 20.921875 -18.96875 C 21.703125 -17.757812 22.09375 -16.320312 22.09375 -14.65625 C 22.09375 -12.9375 21.675781 -11.457031 20.84375 -10.21875 C 20.007812 -8.988281 18.8125 -8.070312 17.25 -7.46875 L 22.484375 0 Z M 17.828125 -14.65625 C 17.828125 -16.101562 17.347656 -17.21875 16.390625 -18 C 15.441406 -18.78125 14.050781 -19.171875 12.21875 -19.171875 L 7.28125 -19.171875 L 7.28125 -10.109375 L 12.21875 -10.109375 C 14.050781 -10.109375 15.441406 -10.5 16.390625 -11.28125 C 17.347656 -12.070312 17.828125 -13.195312 17.828125 -14.65625 Z M 17.828125 -14.65625 "/></g></g><g style="fill:#000000;fill-opacity:1;"><g transform="translate(574.281697, 639.423345)"><path style="stroke:none" d="M 20.109375 -3.546875 L 20.109375 0 L 3.046875 0 L 3.046875 -22.734375 L 19.65625 -22.734375 L 19.65625 -19.203125 L 7.28125 -19.203125 L 7.28125 -13.28125 L 18.25 -13.28125 L 18.25 -9.8125 L 7.28125 -9.8125 L 7.28125 -3.546875 Z M 20.109375 -3.546875 "/></g></g><g style="fill:#000000;fill-opacity:1;"><g transform="translate(211.927816, 569.988927)"><path style="stroke:none" d="M 21.78125 -15.453125 L 30.375 -15.453125 L 30.375 -3.0625 C 28.644531 -1.851562 26.632812 -0.925781 24.34375 -0.28125 C 22.050781 0.351562 19.800781 0.671875 17.59375 0.671875 C 14.46875 0.671875 11.660156 0.0234375 9.171875 -1.265625 C 6.691406 -2.566406 4.742188 -4.382812 3.328125 -6.71875 C 1.921875 -9.050781 1.21875 -11.695312 1.21875 -14.65625 C 1.21875 -17.625 1.921875 -20.269531 3.328125 -22.59375 C 4.742188 -24.925781 6.710938 -26.742188 9.234375 -28.046875 C 11.765625 -29.347656 14.617188 -30 17.796875 -30 C 20.679688 -30 23.257812 -29.515625 25.53125 -28.546875 C 27.8125 -27.585938 29.703125 -26.1875 31.203125 -24.34375 L 24.890625 -18.765625 C 23.046875 -20.921875 20.851562 -22 18.3125 -22 C 16.125 -22 14.390625 -21.34375 13.109375 -20.03125 C 11.828125 -18.71875 11.1875 -16.925781 11.1875 -14.65625 C 11.1875 -12.457031 11.820312 -10.6875 13.09375 -9.34375 C 14.363281 -8 16.0625 -7.328125 18.1875 -7.328125 C 19.4375 -7.328125 20.632812 -7.566406 21.78125 -8.046875 Z M 21.78125 -15.453125 "/></g></g><g style="fill:#000000;fill-opacity:1;"><g transform="translate(246.146427, 569.988927)"><path style="stroke:none" d="M 14.953125 -7.375 L 12.28125 -7.375 L 12.28125 0 L 2.390625 0 L 2.390625 -29.328125 L 16.5 -29.328125 C 19.207031 -29.328125 21.566406 -28.878906 23.578125 -27.984375 C 25.585938 -27.085938 27.140625 -25.800781 28.234375 -24.125 C 29.328125 -22.445312 29.875 -20.492188 29.875 -18.265625 C 29.875 -16.171875 29.394531 -14.34375 28.4375 -12.78125 C 27.488281 -11.21875 26.125 -9.972656 24.34375 -9.046875 L 30.5 0 L 19.9375 0 Z M 19.890625 -18.265625 C 19.890625 -19.347656 19.554688 -20.191406 18.890625 -20.796875 C 18.222656 -21.398438 17.21875 -21.703125 15.875 -21.703125 L 12.28125 -21.703125 L 12.28125 -14.828125 L 15.875 -14.828125 C 17.21875 -14.828125 18.222656 -15.125 18.890625 -15.71875 C 19.554688 -16.320312 19.890625 -17.171875 19.890625 -18.265625 Z M 19.890625 -18.265625 "/></g></g><g style="fill:#000000;fill-opacity:1;"><g transform="translate(279.359846, 569.988927)"><path style="stroke:none" d="M 17.765625 0.671875 C 14.609375 0.671875 11.769531 0.015625 9.25 -1.296875 C 6.738281 -2.609375 4.769531 -4.429688 3.34375 -6.765625 C 1.925781 -9.097656 1.21875 -11.726562 1.21875 -14.65625 C 1.21875 -17.59375 1.925781 -20.226562 3.34375 -22.5625 C 4.769531 -24.894531 6.738281 -26.71875 9.25 -28.03125 C 11.769531 -29.34375 14.609375 -30 17.765625 -30 C 20.921875 -30 23.753906 -29.34375 26.265625 -28.03125 C 28.773438 -26.71875 30.742188 -24.894531 32.171875 -22.5625 C 33.597656 -20.226562 34.3125 -17.59375 34.3125 -14.65625 C 34.3125 -11.726562 33.597656 -9.097656 32.171875 -6.765625 C 30.742188 -4.429688 28.773438 -2.609375 26.265625 -1.296875 C 23.753906 0.015625 20.921875 0.671875 17.765625 0.671875 Z M 17.765625 -7.328125 C 18.992188 -7.328125 20.101562 -7.625 21.09375 -8.21875 C 22.082031 -8.820312 22.867188 -9.675781 23.453125 -10.78125 C 24.046875 -11.882812 24.34375 -13.175781 24.34375 -14.65625 C 24.34375 -16.132812 24.046875 -17.425781 23.453125 -18.53125 C 22.867188 -19.632812 22.082031 -20.488281 21.09375 -21.09375 C 20.101562 -21.695312 18.992188 -22 17.765625 -22 C 16.535156 -22 15.421875 -21.695312 14.421875 -21.09375 C 13.429688 -20.488281 12.644531 -19.632812 12.0625 -18.53125 C 11.476562 -17.425781 11.1875 -16.132812 11.1875 -14.65625 C 11.1875 -13.175781 11.476562 -11.882812 12.0625 -10.78125 C 12.644531 -9.675781 13.429688 -8.820312 14.421875 -8.21875 C 15.421875 -7.625 16.535156 -7.328125 17.765625 -7.328125 Z M 17.765625 -7.328125 "/></g></g><g style="fill:#000000;fill-opacity:1;"><g transform="translate(316.887207, 569.988927)"><path style="stroke:none" d="M 16.421875 0.671875 C 11.921875 0.671875 8.414062 -0.539062 5.90625 -2.96875 C 3.394531 -5.40625 2.140625 -8.816406 2.140625 -13.203125 L 2.140625 -29.328125 L 12.015625 -29.328125 L 12.015625 -13.484375 C 12.015625 -11.335938 12.398438 -9.773438 13.171875 -8.796875 C 13.941406 -7.816406 15.050781 -7.328125 16.5 -7.328125 C 17.957031 -7.328125 19.066406 -7.816406 19.828125 -8.796875 C 20.597656 -9.773438 20.984375 -11.335938 20.984375 -13.484375 L 20.984375 -29.328125 L 30.703125 -29.328125 L 30.703125 -13.203125 C 30.703125 -8.816406 29.445312 -5.40625 26.9375 -2.96875 C 24.425781 -0.539062 20.921875 0.671875 16.421875 0.671875 Z M 16.421875 0.671875 "/></g></g><g style="fill:#000000;fill-opacity:1;"><g transform="translate(351.734064, 569.988927)"><path style="stroke:none" d="M 16.5 -29.328125 C 19.207031 -29.328125 21.566406 -28.878906 23.578125 -27.984375 C 25.585938 -27.085938 27.140625 -25.800781 28.234375 -24.125 C 29.328125 -22.445312 29.875 -20.492188 29.875 -18.265625 C 29.875 -16.023438 29.328125 -14.066406 28.234375 -12.390625 C 27.140625 -10.722656 25.585938 -9.441406 23.578125 -8.546875 C 21.566406 -7.648438 19.207031 -7.203125 16.5 -7.203125 L 12.28125 -7.203125 L 12.28125 0 L 2.390625 0 L 2.390625 -29.328125 Z M 15.875 -14.828125 C 17.21875 -14.828125 18.222656 -15.125 18.890625 -15.71875 C 19.554688 -16.320312 19.890625 -17.171875 19.890625 -18.265625 C 19.890625 -19.347656 19.554688 -20.191406 18.890625 -20.796875 C 18.222656 -21.398438 17.21875 -21.703125 15.875 -21.703125 L 12.28125 -21.703125 L 12.28125 -14.828125 Z M 15.875 -14.828125 "/></g></g><g style="fill:#000000;fill-opacity:1;"><g transform="translate(384.863713, 569.988927)"><path style="stroke:none" d="M 26.765625 -7.453125 L 26.765625 0 L 2.390625 0 L 2.390625 -29.328125 L 26.21875 -29.328125 L 26.21875 -21.859375 L 12.109375 -21.859375 L 12.109375 -18.4375 L 24.5 -18.4375 L 24.5 -11.3125 L 12.109375 -11.3125 L 12.109375 -7.453125 Z M 26.765625 -7.453125 "/></g></g><g style="fill:#000000;fill-opacity:1;"><g transform="translate(415.061579, 569.988927)"><path style="stroke:none" d=""/></g></g><g style="fill:#000000;fill-opacity:1;"><g transform="translate(429.637094, 569.988927)"><path style="stroke:none" d="M 28.5625 0 L 28.484375 -13.359375 L 22.125 -2.640625 L 17.765625 -2.640625 L 11.390625 -12.90625 L 11.390625 0 L 2.390625 0 L 2.390625 -29.328125 L 10.515625 -29.328125 L 20.0625 -13.703125 L 29.359375 -29.328125 L 37.484375 -29.328125 L 37.578125 0 Z M 28.5625 0 "/></g></g><g style="fill:#000000;fill-opacity:1;"><g transform="translate(471.604042, 569.988927)"><path style="stroke:none" d="M 8.75 -21.65625 L 0.171875 -21.65625 L 0.171875 -29.328125 L 27.234375 -29.328125 L 27.234375 -21.65625 L 18.640625 -21.65625 L 18.640625 0 L 8.75 0 Z M 8.75 -21.65625 "/></g></g><g style="fill:#000000;fill-opacity:1;"><g transform="translate(501.00611, 569.988927)"><path style="stroke:none" d="M 26.765625 -7.453125 L 26.765625 0 L 2.390625 0 L 2.390625 -29.328125 L 26.21875 -29.328125 L 26.21875 -21.859375 L 12.109375 -21.859375 L 12.109375 -18.4375 L 24.5 -18.4375 L 24.5 -11.3125 L 12.109375 -11.3125 L 12.109375 -7.453125 Z M 26.765625 -7.453125 "/></g></g><g style="fill:#000000;fill-opacity:1;"><g transform="translate(531.203976, 569.988927)"><path style="stroke:none" d="M 17.546875 0.671875 C 14.453125 0.671875 11.660156 0.0234375 9.171875 -1.265625 C 6.691406 -2.566406 4.742188 -4.382812 3.328125 -6.71875 C 1.921875 -9.050781 1.21875 -11.695312 1.21875 -14.65625 C 1.21875 -17.625 1.921875 -20.269531 3.328125 -22.59375 C 4.742188 -24.925781 6.691406 -26.742188 9.171875 -28.046875 C 11.660156 -29.347656 14.453125 -30 17.546875 -30 C 20.398438 -30 22.941406 -29.492188 25.171875 -28.484375 C 27.410156 -27.484375 29.253906 -26.03125 30.703125 -24.125 L 24.46875 -18.5625 C 22.644531 -20.851562 20.507812 -22 18.0625 -22 C 15.988281 -22 14.320312 -21.332031 13.0625 -20 C 11.8125 -18.675781 11.1875 -16.894531 11.1875 -14.65625 C 11.1875 -12.425781 11.8125 -10.644531 13.0625 -9.3125 C 14.320312 -7.988281 15.988281 -7.328125 18.0625 -7.328125 C 20.507812 -7.328125 22.644531 -8.472656 24.46875 -10.765625 L 30.703125 -5.1875 C 29.253906 -3.289062 27.410156 -1.835938 25.171875 -0.828125 C 22.941406 0.171875 20.398438 0.671875 17.546875 0.671875 Z M 17.546875 0.671875 "/></g></g><g style="fill:#000000;fill-opacity:1;"><g transform="translate(564.375521, 569.988927)"><path style="stroke:none" d="M 31.296875 -29.328125 L 31.296875 0 L 21.40625 0 L 21.40625 -10.8125 L 12.28125 -10.8125 L 12.28125 0 L 2.390625 0 L 2.390625 -29.328125 L 12.28125 -29.328125 L 12.28125 -18.9375 L 21.40625 -18.9375 L 21.40625 -29.328125 Z M 31.296875 -29.328125 "/></g></g><path style="fill:none;stroke-width:11;stroke-linecap:butt;stroke-linejoin:miter;stroke:#000000;stroke-opacity:1;stroke-miterlimit:4;" d="M 0.00169479 5.502339 L 507.152744 5.502339 " transform="matrix(0.749792,0,0,0.749792,213.428417,590.444702)"/><g clip-rule="nonzero" clip-path="url(#6a7585117d)"><path style="fill:none;stroke-width:14;stroke-linecap:butt;stroke-linejoin:miter;stroke:#000000;stroke-opacity:1;stroke-miterlimit:4;" d="M 0.00169479 -0.00189745 L 507.142324 -0.00189745 L 507.142324 464.085126 L 0.00169479 464.085126 Z M 0.00169479 -0.00189745 " transform="matrix(0.749792,0,0,0.749792,213.428417,164.161579)"/></g><g style="fill:#000000;fill-opacity:1;"><g transform="translate(251.09808, 475.462413)"><path style="stroke:none" d="M 0 0 L 0 -136.125 L 68.0625 -204.171875 L 68.0625 0 Z M 119.109375 0 L 119.109375 -204.171875 L 0 -204.171875 L 0 -272.234375 L 238.203125 -272.234375 L 306.265625 -204.171875 L 306.265625 0 L 238.203125 0 L 238.203125 -204.171875 L 187.15625 -204.171875 L 187.15625 0 Z M 119.109375 0 "/></g></g></g></svg>